<svg class="o-svg" height="200" viewBox="0 0 923 200" width="923" xmlns="http://www.w3.org/2000/svg">
    <style>
        .svg__pipeline__text { fill: #1a1e23; font: 20px Arial, sans-serif }
        .svg__pipeline__text-small { fill: #1a1e23; font: bold 18px Arial, sans-serif }
        .svg__pipeline__text-code { fill: #1a1e23; font: 600 16px Menlo, Monaco, Consolas, &quot;Liberation Mono&quot;, &quot;Courier New&quot;, monospace }
    </style>
    <rect fill="none" height="127" rx="19.1" ry="19.1" stroke="#09a3d5" stroke-dasharray="3 6" stroke-width="3" width="601" x="159" y="21"/>
    <path d="M801 55h120v60H801z" fill="#e1d5e7" stroke="#9673a6" stroke-width="2"/>
    <text class="svg__pipeline__text" dy="0.75em" height="19" transform="translate(846.5 75.5)" width="28">Doc</text>
    <path d="M121.2 84.7h29.4" fill="none" stroke="#999" stroke-miterlimit="10" stroke-width="2"/>
    <path d="M156.6 84.7l-8 4 2-4-2-4z" fill="#999" stroke="#999" stroke-miterlimit="10" stroke-width="2"/>
    <path d="M1 55h120v60H1z" fill="#f5f5f5" stroke="#999" stroke-width="2"/>
    <text class="svg__pipeline__text" dy="0.85em" height="22" transform="translate(43.5 73.5)" width="34">Text</text>
    <path d="M760 84.7h33" fill="none" stroke="#999" stroke-miterlimit="10" stroke-width="2"/>
    <path d="M799 84.7l-8 4 2-4-2-4z" fill="#999" stroke="#999" stroke-miterlimit="10" stroke-width="2"/>
    <rect fill="#dae8fc" height="39" rx="5.8" ry="5.8" stroke="#09a3d5" stroke-width="2" width="75" x="422" y="1"/>
    <text class="svg__pipeline__text-code" dx="0.1em" dy="0.8em" height="17" transform="translate(444.5 11.5)" width="29">nlp</text>
    <path d="M176 58h103.3L296 88l-16.8 30H176l16.8-30z" fill="#f8cecc" stroke="#b85450" stroke-miterlimit="10" stroke-width="2"/>
    <text class="svg__pipeline__text-small" dx="-0.25em" dy="0.75em" height="14" transform="translate(206.5 80.5)" width="58">tokenizer</text>
    <path d="M314 58h103.3L434 88l-16.8 30H314l16.8-30z" fill="#ffe6cc" stroke="#d79b00" stroke-miterlimit="10" stroke-width="2"/>
    <text class="svg__pipeline__text-small" dx="8" dy="0.75em" height="14" transform="translate(342.5 80.5)" width="62">tagger</text>
    <path d="M296.5 88.2h24.7" fill="none" stroke="#999" stroke-miterlimit="10" stroke-width="2"/>
    <path d="M327.2 88.2l-8 4 2-4-2-4z" fill="#999" stroke="#999" stroke-miterlimit="10" stroke-width="2"/>
    <path d="M416 58h103.3L536 88l-16.8 30H416l16.8-30z" fill="#ffe6cc" stroke="#d79b00" stroke-miterlimit="10" stroke-width="2"/>
    <text class="svg__pipeline__text-small" dx="-0.25em" dy="0.75em" height="14" transform="translate(455.5 80.5)" width="40">parser</text>
    <path d="M519 58h103.3L639 88l-16.8 30H519l16.8-30z" fill="#ffe6cc" stroke="#d79b00" stroke-miterlimit="10" stroke-width="2"/>
    <text class="svg__pipeline__text-small" dx="8" dy="0.75em" height="14" transform="translate(558.5 80.5)" width="40">ner</text>
    <path d="M622 58h103.3L742 88l-16.8 30H622l16.8-30z" fill="#ffe6cc" stroke="#d79b00" stroke-miterlimit="10" stroke-width="2"/>
    <text class="svg__pipeline__text-small" dx="8" dy="0.75em" height="14" transform="translate(671.5 80.5)" width="20">...</text>
</svg>